<?xml version="1.0" standalone="yes"?>
<!DOCTYPE svg PUBLIC "-//W3C//DTD SVG 1.1//EN" 
  "http://www.w3.org/Graphics/SVG/1.1/DTD/svg11.dtd">
<svg width="512" height="512" viewBox="-270 -270 544 544"
     xmlns="http://www.w3.org/2000/svg"
     xmlns:xlink="http://www.w3.org/1999/xlink" version="1.1">
  <defs>
    <filter id="BlurFilter">
      <feGaussianBlur in="SourceGraphic" stdDeviation="8"/>
    </filter>
  </defs>p
  <!-- shadow -->
  <circle r="260" fill="white" filter="url(#BlurFilter)"/>

  <!-- inner circle -->
  <circle r="240" fill="white"/>
  <clipPath id="innerCircle">
    <circle r="208"/>
  </clipPath>

  <g transform="rotate(-45)"  clip-path="url(#innerCircle)">
    <!-- blue inner bottom -->
    <!-- (104, 180), (104, 130), (80, 130), (80, 180), (104, 180) -->
    <path fill="#0bf5ff"
          d="M-104,0
             A104,104 0 0,0 -66.8499,79.6686
             L-51.4230,61.2836
             A80,80 0 0,1 -80,0
             H-104
             Z"/>


    <!-- blue inner right -->
    <!-- (104, 0), (104, 5), (96, 5), (96, 60), (88, 60),
         (88, 0), (104, 0)-->
    <path fill="#0bf5ff"
          d="M104,0
             A104,104 0 0,1 103.6042,9.0642
             L95.63,8.3669
             A96,96 0 0,1 48,83.1384
             L44,76.2102
             A88,88 0 0,0 88,0
             H104
             Z"/>

    <!-- yellow inner -->
    <!-- (80, -180), (104, -180), (104, 0), (88, 0), (88, -30),
         (80, -30), (80, -180) -->
    <path fill="#febc01"
          d="M-80,0
             H-104
             A104,104 0 0,1 104,0
             H88
             A88,88 0 0,0 76.2102,-44
             L69.2820,-40
             A80,80 0 0,0 -80,0
             Z"/>

    <!-- yellow left-bottom -->
    <!--(208, -180), (184, -180), (184, -170), (208, -170), (208, -180) -->
    <path fill="#fe9c04"
          d="M-210,0
             H-184
             A184,184 0 0,1 -181.2047,-31.9513
             L-206.8096,-36.4661
             A210,210 0 0,0 -210,0
             Z"/>

    <!-- yellow bottom -->
    <!-- (160, -180), (152, -180), (152, 115), (128, 115), (128, 75),
         (176, 75), (176, 170), (160, 170) ,(160, -180) -->
    <path fill="#fef001"
          d="M-160,0
             H-152
             A152,152 0 0,0 -64.2380,137.7588
             L-54.0951,116.0074
             A128,128 0 0,0 33.1288,123.6385
             L45.5521,170.0029
             A176,176 0 0,1 -173.3261,30.5621
             L-157.5692,27.7837
             A160,160 0 0,1 -160,0
             Z"/>

    <!-- yellow right -->
    <!-- (120, 0), (152, 0), (152, 45), (136, 45), (136, 30)
         (120, 30), (120, 0)-->
    <path fill="#fef001"
          d="M120,0
             L152,0
             A152,152 0 0,1 107.4802,107.4802
             L96.1665,96.1665
             A136,136 0 0,0 117.7795,68
             L103.9230,60
             A120,120 0 0,0 120,0
             Z"/>

    <!-- blue top -->
    <!-- (152, 0), (152, -120), (184, -120), (184, -175), (160, -175),
         (160, -180), (152, -180), (152, -125), (136, -125), (120, -120)
         (120, -65), (120, 0) -->
    <path fill="#258dfd"
          d="M152,0
             A152,152 0 0,0 -76,-131.6359
             L-92,-159.3487
             A184,184 0 0,0 -183.2998,-16.0367
             L-159.3912,-13.9449
             A160,160 0 0,0 -160,0
             H-152
             A152,152 0 0,1 -87.1836,-124.5111
             L-78.9964,-111.4047
             A136,136 0 0,1 57.4761,-123.2579
             L60,-103.9230
             A120,120 0 0,1 120,0
             Z"/>


    <!-- yellow top -->
    <!-- (168, 0), (208, 0), (208, -90), (168, -95), (168, -115),
         (144, -115), (144, -60), (168, -60), (168, 0)-->
    <path fill="#ffcf1e"
          d="M168,0
             H210
             A210,210 0 0,0 0,-210
             L-14.6422,-167.3607
             A168,168 0 0,0 -71,-152.2597
             L-60.8570,-130.5083
             A144,144 0 0,1 72,-124.7077
             L84,-145.4923
             A168,168 0 0,1 168,0
             Z"/>

    <!-- blue bottom -->
    <!-- (168, 0), (208, 0), (208, 180), (184, 180), (184, 110),
         (144, 110), (144, 30), (168,30), (168, 0) -->
    <path fill="#0ac4ff"
          d="M168,0
             H210
             A210,210 0 0,1 -210,0
             H-184
             A184,184 0 0,0 -62.9317,172.9034
             L-49.2509,135.3157
             A144,144 0 0,0 124.8088,72
             L145.4923,84
             A168,168 0 0,0 168,0
             Z"/>
  </g>

  <g transform="rotate(-45)">
    <!-- black -->
    <!-- 1. external r=256
         2. internal
         (208, 0), (208, 135), (192, 140), (r=192,y=16), (r=168, y=16)
         (168, 155), (152, 157.5), (r=152, y=16), (r=88, y=16), (88, 0)
         (x=36,y=24), (r=64, y=24), (64, 180), (208, 180), repeat
         (use -60 instead of 155, -57.5 instead of 157.5, 144 instead of 152)
    -->
    <path fill="black"
          fill-rule="evenodd"
          d="M256,0
             A256,256 0 0,1 -256,0
             A256,256 0 0,1 256,0
             Z

             M208,0
             A208,208 0 0,1 -147.0782,147.0782
             L-147.0805,123.4152
             A192,192 0 0,1 -191.3321,16
             H-167.2364
             A168,168 0 0,0 -152.2597,71
             L-140.4297,58.1679
             A152,152 0 0,1 -151.1555,16
             H-86.5332
             A88,88 0 0,0 88,0
             L36,24
             L59.3296,24
             A64,64 0 0,1 -64,0
             H-208
             A208,208 0 0,1 147.0782,-147.0782
             L147.0805,-123.4152
             A192,192 0 0,1 191.3321,-16
             H167.2364
             A168,168 0 0,0 84,-145.4923
             L77.3711,-121.4484
             A152,152 0 0,1 143.1084,-16
             H86.5332
             A88,88 0 0,0 -88,0
             L-36,-24
             L-59.3296,-24
             A64,64 0 0,1 64,0
             H208
             Z
             "/>
  </g>

</svg>
